<?xml version="1.0" encoding="UTF-8" standalone="no"?>
<!-- Created with Inkscape (http://www.inkscape.org/) -->

<svg
   width="600mm"
   height="400mm"
   viewBox="0 0 600 400"
   version="1.1"
   id="svg1"
   inkscape:version="1.3.2 (091e20e, 2023-11-25, custom)"
   sodipodi:docname="weed.svg"
   inkscape:export-filename="weed.png"
   inkscape:export-xdpi="96"
   inkscape:export-ydpi="96"
   xmlns:inkscape="http://www.inkscape.org/namespaces/inkscape"
   xmlns:sodipodi="http://sodipodi.sourceforge.net/DTD/sodipodi-0.dtd"
   xmlns="http://www.w3.org/2000/svg"
   xmlns:svg="http://www.w3.org/2000/svg">
  <sodipodi:namedview
     id="namedview1"
     pagecolor="#ffffff"
     bordercolor="#000000"
     borderopacity="0.25"
     inkscape:showpageshadow="2"
     inkscape:pageopacity="0.0"
     inkscape:pagecheckerboard="0"
     inkscape:deskcolor="#d1d1d1"
     inkscape:document-units="mm"
     inkscape:zoom="0.25606581"
     inkscape:cx="310.46707"
     inkscape:cy="1388.315"
     inkscape:window-width="1920"
     inkscape:window-height="1009"
     inkscape:window-x="-8"
     inkscape:window-y="-8"
     inkscape:window-maximized="1"
     inkscape:current-layer="layer1" />
  <defs
     id="defs1">
    <rect
       x="355.3774"
       y="1210.6263"
       width="1139.7066"
       height="266.33187"
       id="rect26" />
    <rect
       x="634.6025"
       y="343.66166"
       width="14.256813"
       height="39.052462"
       id="rect25" />
  </defs>
  <g
     inkscape:label="Réteg 1"
     inkscape:groupmode="layer"
     id="layer1">
    <g
       id="g26"
       transform="translate(12.399157,29.860509)" />
    <text
       xml:space="preserve"
       transform="scale(0.26458333)"
       id="text25"
       style="white-space:pre;shape-inside:url(#rect25);display:inline;fill:#be5117;fill-opacity:1"><tspan
         x="634.60156"
         y="393.66281"
         id="tspan2"><tspan
           dx="0 11.279297 7.1484375 7.1484375 7.4765625 4.21875 8.2265625 7.59375 3.2929688 6.2519531"
           id="tspan1">Weed Buisn</tspan></tspan></text>
    <g
       id="g2"
       transform="translate(40.428741,55.861343)">
      <ellipse
         style="fill:#be5117;fill-opacity:1;stroke-width:0.264583"
         id="path25"
         cx="259.57126"
         cy="144.13866"
         rx="139.18449"
         ry="124.20663" />
      <path
         id="path1-8"
         style="fill:#006400;fill-opacity:1;stroke:#008f00;stroke-width:1.695;stroke-dasharray:none;stroke-opacity:1"
         d="m 258.63509,21.998558 a 29.546,63.182471 0 0 0 -16.16181,56.176933 29.546,63.182471 0 0 0 0.68523,13.22503 63.182471,29.546 60 0 0 -40.91429,-36.2598 63.182471,29.546 60 0 0 13.98571,56.536599 63.182471,29.546 36.668456 0 0 -49.00632,-15.169619 63.182471,29.546 36.668456 0 0 35.40818,46.511889 63.182471,29.546 36.668456 0 0 15.9768,10.14822 29.546,63.182471 60 0 0 -33.40623,39.03793 29.546,63.182471 60 0 0 56.73142,-14.09216 29.546,63.182471 60 0 0 14.31644,-9.61647 63.182471,29.546 30 0 0 10.80606,6.99389 63.182471,29.546 30 0 0 58.6419,13.69684 63.182471,29.546 30 0 0 -27.41487,-33.34577 29.546,63.182471 60 0 0 12.41682,-6.30918 29.546,63.182471 60 0 0 41.18301,-43.93633 29.546,63.182471 60 0 0 -51.64646,11.3347 29.546,63.182471 30 0 0 1.05317,-1.71617 29.546,63.182471 30 0 0 13.69735,-58.641899 29.546,63.182471 30 0 0 -39.6322,36.57245 29.546,63.182471 0 0 0 0.73897,-13.51339 29.546,63.182471 0 0 0 -17.45888,-57.633693 z" />
      <text
         xml:space="preserve"
         transform="matrix(0.26458333,0,0,0.26458333,18.665036,-124.69178)"
         id="text26"
         style="font-size:96px;white-space:pre;shape-inside:url(#rect26);display:inline;fill:#000003;fill-opacity:1;stroke-width:5.53701;stroke-dasharray:none"
         x="412.28906"
         y="0"><tspan
           x="493.91016"
           y="1298.2107"
           id="tspan4"><tspan
             style="text-align:center;text-anchor:middle;stroke:#000000"
             id="tspan3">WEED BUISNESS 
</tspan></tspan><tspan
           x="801.38672"
           y="1418.2107"
           id="tspan6"><tspan
             style="text-align:center;text-anchor:middle;stroke:#000000"
             id="tspan5">BEPA</tspan></tspan></text>
    </g>
  </g>
</svg>
